<svg width="80" height="80" viewBox="0 0 512 512" fill="none" xmlns="http://www.w3.org/2000/svg">
    <mask id="mask0_702_455" style="mask-type:alpha" maskUnits="userSpaceOnUse" x="0" y="0" width="512" height="512">
        <rect width="512" height="512" rx="77" fill="#FF8FB8"/>
    </mask>
    <g mask="url(#mask0_702_455)">
        <rect width="512" height="512" rx="72" fill="#FF8FB8"/>
        <mask id="mask1_702_455" style="mask-type:alpha" maskUnits="userSpaceOnUse" x="0" y="0" width="512" height="512">
            <rect width="512" height="512" rx="72" fill="#FFB8DA"/>
        </mask>
        <g mask="url(#mask1_702_455)">
            <path d="M562.999 370.844C563.165 370.039 563.246 369.2 563.15 368.337L531.558 83.526C531.461 82.6576 531.198 81.851 530.854 81.0968C530.805 80.9938 530.771 80.8889 530.717 80.7865C530.272 79.9078 529.676 79.1381 528.963 78.4846C528.915 78.4411 528.903 78.3827 528.855 78.3392C528.825 78.3154 528.792 78.3082 528.762 78.2844C528.007 77.641 527.144 77.1506 526.201 76.8156C526.127 76.7912 526.069 76.7543 525.996 76.7298C525.106 76.4432 524.161 76.331 523.183 76.3743C523.086 76.3796 522.993 76.3683 522.896 76.379C522.804 76.3838 522.722 76.3712 522.63 76.3813L76.5824 125.858C76.4913 125.869 76.4079 125.899 76.3174 125.915C76.2322 125.93 76.1482 125.955 76.063 125.97C75.0891 126.143 74.1754 126.467 73.3604 126.948C73.3092 126.976 73.2705 127.018 73.2193 127.046C72.3561 127.581 71.612 128.26 71.0121 129.065C70.9882 129.095 70.9567 129.104 70.9328 129.133C70.8947 129.181 70.8959 129.241 70.8583 129.294C70.306 130.088 69.8889 130.975 69.6475 131.93C69.6165 132.042 69.607 132.151 69.5819 132.268C69.4114 133.079 69.3315 133.924 69.4278 134.792L101.021 419.608C101.118 420.487 101.388 421.304 101.738 422.068C101.788 422.172 101.821 422.271 101.87 422.374C102.321 423.257 102.928 424.031 103.646 424.684C103.688 424.723 103.705 424.775 103.747 424.814C103.783 424.848 103.829 424.865 103.87 424.898C104.163 425.142 104.48 425.352 104.806 425.554C104.951 425.641 105.083 425.751 105.233 425.832C105.614 426.04 106.017 426.196 106.428 426.335C106.529 426.367 106.623 426.427 106.724 426.454C107.74 426.759 108.833 426.877 109.953 426.752L555.996 377.276C557.116 377.152 558.157 376.803 559.081 376.277C559.224 376.196 559.353 376.084 559.489 375.993C559.803 375.79 560.117 375.581 560.399 375.338C560.547 375.208 560.676 375.047 560.818 374.907C561.067 374.657 561.311 374.407 561.518 374.129C561.557 374.081 561.601 374.044 561.639 373.996C561.677 373.943 561.681 373.878 561.718 373.825C562.266 373.037 562.678 372.155 562.92 371.206C562.961 371.082 562.975 370.966 562.999 370.844ZM87.5381 151.24L236.596 259.856L115.074 399.484L87.5381 151.24ZM377.981 238.041C377.464 238.467 376.908 238.838 376.499 239.405C376.343 239.617 376.312 239.876 376.179 240.097L321.884 301.984L99.0908 139.637L503.683 94.7583L377.981 238.041ZM249.726 269.422L318.325 319.408C320.019 320.642 322.038 321.129 323.984 320.913C325.93 320.697 327.793 319.78 329.17 318.205L384.453 255.194L533.455 363.496L128.782 408.383L249.726 269.422ZM395.173 242.977L517.498 103.548L545.048 351.92L395.173 242.977Z" fill="black"/>
        </g>
    </g>
</svg>
